ISO-10303-21;
HEADER;
FILE_DESCRIPTION(('ViewDefinition[DesignTransferView]'),'2;1');
FILE_NAME('/dev/null','2026-09-02T16:52:14+08:00',(''),(''),'IfcOpenShell 0.8.5','IfcOpenShell 0.8.5','Nobody');
FILE_SCHEMA(('IFC4'));
ENDSEC;
DATA;
#1=IFCPROJECT('3zi1Ywyd90x8LNhidvaSnV',$,'Simple Structure Project',$,$,$,$,(#10),#5);
#2=IFCSIUNIT(*,.LENGTHUNIT.,$,.METRE.);
#3=IFCSIUNIT(*,.AREAUNIT.,$,.SQUARE_METRE.);
#4=IFCSIUNIT(*,.VOLUMEUNIT.,$,.CUBIC_METRE.);
#5=IFCUNITASSIGNMENT((#4,#2,#3));
#6=IFCCARTESIANPOINT((0.,0.,0.));
#7=IFCDIRECTION((0.,0.,1.));
#8=IFCDIRECTION((1.,0.,0.));
#9=IFCAXIS2PLACEMENT3D(#6,#7,#8);
#10=IFCGEOMETRICREPRESENTATIONCONTEXT($,'Model',3,1.0000000000000001E-05,#9,$);
#11=IFCGEOMETRICREPRESENTATIONSUBCONTEXT('Body','Model',*,*,*,*,#10,$,.MODEL_VIEW.,$);
#12=IFCSITE('10kZ4$Tcz6eBDBHMhz9c1u',$,'Default Site',$,$,#22,$,$,$,$,$,$,$,$);
#13=IFCBUILDING('31G_hhHAvB4gDLxA9NpWV8',$,'Default Building',$,$,#27,$,$,$,$,$,$);
#14=IFCBUILDINGSTOREY('2CLTUG5A13svhmNHzAQGvx',$,'Ground Floor',$,$,#32,$,$,$,$);
#15=IFCRELAGGREGATES('24VDj1XOb8fhkNHFJsZsNK',$,$,$,#1,(#12));
#16=IFCRELAGGREGATES('1rt4Rs_EP6YhfHWHWH53yz',$,$,$,#12,(#13));
#17=IFCRELAGGREGATES('0JRapaUZDAnvSoZHXrO6WN',$,$,$,#13,(#14));
#18=IFCCARTESIANPOINT((0.,0.,0.));
#19=IFCDIRECTION((0.,0.,1.));
#20=IFCDIRECTION((1.,0.,0.));
#21=IFCAXIS2PLACEMENT3D(#18,#19,#20);
#22=IFCLOCALPLACEMENT($,#21);
#23=IFCCARTESIANPOINT((0.,0.,0.));
#24=IFCDIRECTION((0.,0.,1.));
#25=IFCDIRECTION((1.,0.,0.));
#26=IFCAXIS2PLACEMENT3D(#23,#24,#25);
#27=IFCLOCALPLACEMENT(#22,#26);
#28=IFCCARTESIANPOINT((0.,0.,0.));
#29=IFCDIRECTION((0.,0.,1.));
#30=IFCDIRECTION((1.,0.,0.));
#31=IFCAXIS2PLACEMENT3D(#28,#29,#30);
#32=IFCLOCALPLACEMENT(#27,#31);
#33=IFCCOLUMN('0sHsw5_rXEqPcBjZdZI$Ln',$,'Column 1',$,$,#231,#44,$,$);
#34=IFCCARTESIANPOINTLIST2D(((0.,0.),(0.,0.40000000000000002),(0.40000000000000002,0.40000000000000002),(0.40000000000000002,0.),(0.,0.)));
#35=IFCINDEXEDPOLYCURVE(#34,$,.F.);
#36=IFCDIRECTION((0.,0.,1.));
#37=IFCARBITRARYCLOSEDPROFILEDEF(.AREA.,$,#35);
#38=IFCCARTESIANPOINT((0.,0.,0.));
#39=IFCDIRECTION((0.,0.,1.));
#40=IFCDIRECTION((1.,0.,0.));
#41=IFCAXIS2PLACEMENT3D(#38,#39,#40);
#42=IFCEXTRUDEDAREASOLID(#37,#41,#36,3.);
#43=IFCSHAPEREPRESENTATION(#11,'Body','SweptSolid',(#42));
#44=IFCPRODUCTDEFINITIONSHAPE($,$,(#43));
#50=IFCCOLUMN('2PH7_ppinC4xbsDRHMAMqX',$,'Column 2',$,$,#191,#61,$,$);
#51=IFCCARTESIANPOINTLIST2D(((0.,0.),(0.,0.40000000000000002),(0.40000000000000002,0.40000000000000002),(0.40000000000000002,0.),(0.,0.)));
#52=IFCINDEXEDPOLYCURVE(#51,$,.F.);
#53=IFCDIRECTION((0.,0.,1.));
#54=IFCARBITRARYCLOSEDPROFILEDEF(.AREA.,$,#52);
#55=IFCCARTESIANPOINT((0.,0.,0.));
#56=IFCDIRECTION((0.,0.,1.));
#57=IFCDIRECTION((1.,0.,0.));
#58=IFCAXIS2PLACEMENT3D(#55,#56,#57);
#59=IFCEXTRUDEDAREASOLID(#54,#58,#53,3.);
#60=IFCSHAPEREPRESENTATION(#11,'Body','SweptSolid',(#59));
#61=IFCPRODUCTDEFINITIONSHAPE($,$,(#60));
#67=IFCCOLUMN('0G76ZyZBrAVgoF$QcGLc9t',$,'Column 3',$,$,#201,#78,$,$);
#68=IFCCARTESIANPOINTLIST2D(((0.,0.),(0.,0.40000000000000002),(0.40000000000000002,0.40000000000000002),(0.40000000000000002,0.),(0.,0.)));
#69=IFCINDEXEDPOLYCURVE(#68,$,.F.);
#70=IFCDIRECTION((0.,0.,1.));
#71=IFCARBITRARYCLOSEDPROFILEDEF(.AREA.,$,#69);
#72=IFCCARTESIANPOINT((0.,0.,0.));
#73=IFCDIRECTION((0.,0.,1.));
#74=IFCDIRECTION((1.,0.,0.));
#75=IFCAXIS2PLACEMENT3D(#72,#73,#74);
#76=IFCEXTRUDEDAREASOLID(#71,#75,#70,3.);
#77=IFCSHAPEREPRESENTATION(#11,'Body','SweptSolid',(#76));
#78=IFCPRODUCTDEFINITIONSHAPE($,$,(#77));
#84=IFCCOLUMN('1euhzsv5v2KwBcnpx2p2kd',$,'Column 4',$,$,#211,#95,$,$);
#85=IFCCARTESIANPOINTLIST2D(((0.,0.),(0.,0.40000000000000002),(0.40000000000000002,0.40000000000000002),(0.40000000000000002,0.),(0.,0.)));
#86=IFCINDEXEDPOLYCURVE(#85,$,.F.);
#87=IFCDIRECTION((0.,0.,1.));
#88=IFCARBITRARYCLOSEDPROFILEDEF(.AREA.,$,#86);
#89=IFCCARTESIANPOINT((0.,0.,0.));
#90=IFCDIRECTION((0.,0.,1.));
#91=IFCDIRECTION((1.,0.,0.));
#92=IFCAXIS2PLACEMENT3D(#89,#90,#91);
#93=IFCEXTRUDEDAREASOLID(#88,#92,#87,3.);
#94=IFCSHAPEREPRESENTATION(#11,'Body','SweptSolid',(#93));
#95=IFCPRODUCTDEFINITIONSHAPE($,$,(#94));
#101=IFCBEAM('0kL9bYhD51bwNgPhy6JB7W',$,'Beam 1',$,$,#216,#112,$,$);
#102=IFCCARTESIANPOINTLIST2D(((0.,0.),(0.,0.29999999999999999),(6.,0.29999999999999999),(6.,0.),(0.,0.)));
#103=IFCINDEXEDPOLYCURVE(#102,$,.F.);
#104=IFCDIRECTION((0.,0.,1.));
#105=IFCARBITRARYCLOSEDPROFILEDEF(.AREA.,$,#103);
#106=IFCCARTESIANPOINT((0.,0.,0.));
#107=IFCDIRECTION((0.,0.,1.));
#108=IFCDIRECTION((1.,0.,0.));
#109=IFCAXIS2PLACEMENT3D(#106,#107,#108);
#110=IFCEXTRUDEDAREASOLID(#105,#109,#104,0.5);
#111=IFCSHAPEREPRESENTATION(#11,'Body','SweptSolid',(#110));
#112=IFCPRODUCTDEFINITIONSHAPE($,$,(#111));
#118=IFCBEAM('0b5lArJxjB3Bt1WM1HT9O5',$,'Beam 2',$,$,#196,#129,$,$);
#119=IFCCARTESIANPOINTLIST2D(((0.,0.),(0.,0.29999999999999999),(6.,0.29999999999999999),(6.,0.),(0.,0.)));
#120=IFCINDEXEDPOLYCURVE(#119,$,.F.);
#121=IFCDIRECTION((0.,0.,1.));
#122=IFCARBITRARYCLOSEDPROFILEDEF(.AREA.,$,#120);
#123=IFCCARTESIANPOINT((0.,0.,0.));
#124=IFCDIRECTION((0.,0.,1.));
#125=IFCDIRECTION((1.,0.,0.));
#126=IFCAXIS2PLACEMENT3D(#123,#124,#125);
#127=IFCEXTRUDEDAREASOLID(#122,#126,#121,0.5);
#128=IFCSHAPEREPRESENTATION(#11,'Body','SweptSolid',(#127));
#129=IFCPRODUCTDEFINITIONSHAPE($,$,(#128));
#135=IFCBEAM('34X46eoen2yvgl$$pl53qU',$,'Beam 3',$,$,#206,#146,$,$);
#136=IFCCARTESIANPOINTLIST2D(((0.,0.),(0.,4.),(0.29999999999999999,4.),(0.29999999999999999,0.),(0.,0.)));
#137=IFCINDEXEDPOLYCURVE(#136,$,.F.);
#138=IFCDIRECTION((0.,0.,1.));
#139=IFCARBITRARYCLOSEDPROFILEDEF(.AREA.,$,#137);
#140=IFCCARTESIANPOINT((0.,0.,0.));
#141=IFCDIRECTION((0.,0.,1.));
#142=IFCDIRECTION((1.,0.,0.));
#143=IFCAXIS2PLACEMENT3D(#140,#141,#142);
#144=IFCEXTRUDEDAREASOLID(#139,#143,#138,0.5);
#145=IFCSHAPEREPRESENTATION(#11,'Body','SweptSolid',(#144));
#146=IFCPRODUCTDEFINITIONSHAPE($,$,(#145));
#152=IFCBEAM('3NXJzFqAbCZ9dl0PY9dUOm',$,'Beam 4',$,$,#221,#163,$,$);
#153=IFCCARTESIANPOINTLIST2D(((0.,0.),(0.,4.),(0.29999999999999999,4.),(0.29999999999999999,0.),(0.,0.)));
#154=IFCINDEXEDPOLYCURVE(#153,$,.F.);
#155=IFCDIRECTION((0.,0.,1.));
#156=IFCARBITRARYCLOSEDPROFILEDEF(.AREA.,$,#154);
#157=IFCCARTESIANPOINT((0.,0.,0.));
#158=IFCDIRECTION((0.,0.,1.));
#159=IFCDIRECTION((1.,0.,0.));
#160=IFCAXIS2PLACEMENT3D(#157,#158,#159);
#161=IFCEXTRUDEDAREASOLID(#156,#160,#155,0.5);
#162=IFCSHAPEREPRESENTATION(#11,'Body','SweptSolid',(#161));
#163=IFCPRODUCTDEFINITIONSHAPE($,$,(#162));
#169=IFCSLAB('2Lj9kMcnL2$ue11gKP_tW3',$,'Concrete Slab',$,$,#226,#180,$,$);
#170=IFCCARTESIANPOINTLIST2D(((0.,0.),(0.,4.4000000000000004),(6.4000000000000004,4.4000000000000004),(6.4000000000000004,0.),(0.,0.)));
#171=IFCINDEXEDPOLYCURVE(#170,$,.F.);
#172=IFCDIRECTION((0.,0.,1.));
#173=IFCARBITRARYCLOSEDPROFILEDEF(.AREA.,$,#171);
#174=IFCCARTESIANPOINT((0.,0.,0.));
#175=IFCDIRECTION((0.,0.,1.));
#176=IFCDIRECTION((1.,0.,0.));
#177=IFCAXIS2PLACEMENT3D(#174,#175,#176);
#178=IFCEXTRUDEDAREASOLID(#173,#177,#172,0.20000000000000001);
#179=IFCSHAPEREPRESENTATION(#11,'Body','SweptSolid',(#178));
#180=IFCPRODUCTDEFINITIONSHAPE($,$,(#179));
#186=IFCRELCONTAINEDINSPATIALSTRUCTURE('3BRUeZab57UvZSXRSRpBBF',$,$,$,(#50,#118,#67,#135,#84,#101,#152,#169,#33),#14);
#187=IFCCARTESIANPOINT((5.7999999999999998,-0.20000000000000001,0.));
#188=IFCDIRECTION((0.,0.,1.));
#189=IFCDIRECTION((1.,0.,0.));
#190=IFCAXIS2PLACEMENT3D(#187,#188,#189);
#191=IFCLOCALPLACEMENT(#32,#190);
#192=IFCCARTESIANPOINT((0.,3.8500000000000001,2.5));
#193=IFCDIRECTION((0.,0.,1.));
#194=IFCDIRECTION((1.,0.,0.));
#195=IFCAXIS2PLACEMENT3D(#192,#193,#194);
#196=IFCLOCALPLACEMENT(#32,#195);
#197=IFCCARTESIANPOINT((5.7999999999999998,3.7999999999999998,0.));
#198=IFCDIRECTION((0.,0.,1.));
#199=IFCDIRECTION((1.,0.,0.));
#200=IFCAXIS2PLACEMENT3D(#197,#198,#199);
#201=IFCLOCALPLACEMENT(#32,#200);
#202=IFCCARTESIANPOINT((-0.14999999999999999,0.,2.5));
#203=IFCDIRECTION((0.,0.,1.));
#204=IFCDIRECTION((1.,0.,0.));
#205=IFCAXIS2PLACEMENT3D(#202,#203,#204);
#206=IFCLOCALPLACEMENT(#32,#205);
#207=IFCCARTESIANPOINT((-0.20000000000000001,3.7999999999999998,0.));
#208=IFCDIRECTION((0.,0.,1.));
#209=IFCDIRECTION((1.,0.,0.));
#210=IFCAXIS2PLACEMENT3D(#207,#208,#209);
#211=IFCLOCALPLACEMENT(#32,#210);
#212=IFCCARTESIANPOINT((0.,-0.14999999999999999,2.5));
#213=IFCDIRECTION((0.,0.,1.));
#214=IFCDIRECTION((1.,0.,0.));
#215=IFCAXIS2PLACEMENT3D(#212,#213,#214);
#216=IFCLOCALPLACEMENT(#32,#215);
#217=IFCCARTESIANPOINT((5.8499999999999996,0.,2.5));
#218=IFCDIRECTION((0.,0.,1.));
#219=IFCDIRECTION((1.,0.,0.));
#220=IFCAXIS2PLACEMENT3D(#217,#218,#219);
#221=IFCLOCALPLACEMENT(#32,#220);
#222=IFCCARTESIANPOINT((-0.20000000000000001,-0.20000000000000001,3.));
#223=IFCDIRECTION((0.,0.,1.));
#224=IFCDIRECTION((1.,0.,0.));
#225=IFCAXIS2PLACEMENT3D(#222,#223,#224);
#226=IFCLOCALPLACEMENT(#32,#225);
#227=IFCCARTESIANPOINT((-0.20000000000000001,-0.20000000000000001,0.));
#228=IFCDIRECTION((0.,0.,1.));
#229=IFCDIRECTION((1.,0.,0.));
#230=IFCAXIS2PLACEMENT3D(#227,#228,#229);
#231=IFCLOCALPLACEMENT(#32,#230);
ENDSEC;
END-ISO-10303-21;
